<mxfile host="app.diagrams.net" modified="2022-09-10T15:50:08.329Z" agent="5.0 (Macintosh; Intel Mac OS X 10_15_7) AppleWebKit/605.1.15 (KHTML, like Gecko) Version/15.6.1 Safari/605.1.15" etag="Ln2QBmJPO925nvOge-Bs" version="20.2.8" type="github">
  <diagram id="zAEFSSsMWEvl6_1o3meR" name="Página-1">
    <mxGraphModel dx="770" dy="350" grid="1" gridSize="10" guides="1" tooltips="1" connect="1" arrows="1" fold="1" page="1" pageScale="1" pageWidth="827" pageHeight="1169" math="0" shadow="0">
      <root>
        <mxCell id="0" />
        <mxCell id="1" parent="0" />
        <mxCell id="PLPeGTsNUyZ7Hu_J96Ss-1" value="«component»&lt;br&gt;&lt;b&gt;GestorUbicacion&lt;br&gt;&lt;/b&gt;" style="html=1;dropTarget=0;" vertex="1" parent="1">
          <mxGeometry x="170" y="571" width="180" height="90" as="geometry" />
        </mxCell>
        <mxCell id="PLPeGTsNUyZ7Hu_J96Ss-2" value="" style="shape=module;jettyWidth=8;jettyHeight=4;" vertex="1" parent="PLPeGTsNUyZ7Hu_J96Ss-1">
          <mxGeometry x="1" width="20" height="20" relative="1" as="geometry">
            <mxPoint x="-27" y="7" as="offset" />
          </mxGeometry>
        </mxCell>
        <mxCell id="PLPeGTsNUyZ7Hu_J96Ss-3" value="" style="html=1;rounded=0;" vertex="1" parent="1">
          <mxGeometry x="150" y="601" width="30" height="30" as="geometry" />
        </mxCell>
        <mxCell id="PLPeGTsNUyZ7Hu_J96Ss-4" value="" style="html=1;rounded=0;" vertex="1" parent="1">
          <mxGeometry x="190" y="550" width="30" height="30" as="geometry" />
        </mxCell>
        <mxCell id="PLPeGTsNUyZ7Hu_J96Ss-5" value="" style="html=1;rounded=0;" vertex="1" parent="1">
          <mxGeometry x="290" y="550" width="30" height="30" as="geometry" />
        </mxCell>
        <mxCell id="PLPeGTsNUyZ7Hu_J96Ss-6" value="" style="html=1;rounded=0;direction=east;flipV=0;" vertex="1" parent="1">
          <mxGeometry x="430" y="781" width="30" height="30" as="geometry" />
        </mxCell>
        <mxCell id="PLPeGTsNUyZ7Hu_J96Ss-7" value="Gestor Ubicacion" style="text;html=1;align=center;verticalAlign=middle;resizable=0;points=[];autosize=1;strokeColor=none;fillColor=none;" vertex="1" parent="1">
          <mxGeometry x="482.5" y="761" width="120" height="30" as="geometry" />
        </mxCell>
        <mxCell id="PLPeGTsNUyZ7Hu_J96Ss-8" value="" style="html=1;rounded=0;direction=east;flipV=0;" vertex="1" parent="1">
          <mxGeometry x="235" y="650" width="30" height="30" as="geometry" />
        </mxCell>
        <mxCell id="PLPeGTsNUyZ7Hu_J96Ss-9" value="Gestor Ubicacion" style="text;html=1;align=center;verticalAlign=middle;resizable=0;points=[];autosize=1;strokeColor=none;fillColor=none;" vertex="1" parent="1">
          <mxGeometry x="280" y="761" width="120" height="30" as="geometry" />
        </mxCell>
        <mxCell id="PLPeGTsNUyZ7Hu_J96Ss-10" value="" style="html=1;rounded=0;" vertex="1" parent="1">
          <mxGeometry x="433" y="591" width="30" height="30" as="geometry" />
        </mxCell>
        <mxCell id="PLPeGTsNUyZ7Hu_J96Ss-11" value="" style="html=1;rounded=0;" vertex="1" parent="1">
          <mxGeometry x="343" y="591" width="30" height="30" as="geometry" />
        </mxCell>
        <mxCell id="PLPeGTsNUyZ7Hu_J96Ss-12" style="edgeStyle=orthogonalEdgeStyle;rounded=0;orthogonalLoop=1;jettySize=auto;html=1;entryX=1;entryY=0.5;entryDx=0;entryDy=0;" edge="1" parent="1" source="PLPeGTsNUyZ7Hu_J96Ss-13" target="PLPeGTsNUyZ7Hu_J96Ss-11">
          <mxGeometry relative="1" as="geometry" />
        </mxCell>
        <mxCell id="PLPeGTsNUyZ7Hu_J96Ss-13" value="" style="html=1;rounded=0;direction=east;flipV=0;" vertex="1" parent="1">
          <mxGeometry x="433" y="591" width="30" height="30" as="geometry" />
        </mxCell>
        <mxCell id="PLPeGTsNUyZ7Hu_J96Ss-14" value="Consulta Reglas" style="text;html=1;align=center;verticalAlign=middle;resizable=0;points=[];autosize=1;strokeColor=none;fillColor=none;" vertex="1" parent="1">
          <mxGeometry x="373" y="621" width="110" height="30" as="geometry" />
        </mxCell>
        <mxCell id="PLPeGTsNUyZ7Hu_J96Ss-15" value="" style="html=1;rounded=0;" vertex="1" parent="1">
          <mxGeometry x="430" y="781" width="30" height="30" as="geometry" />
        </mxCell>
        <mxCell id="PLPeGTsNUyZ7Hu_J96Ss-16" value="" style="endArrow=none;html=1;rounded=0;align=center;verticalAlign=top;endFill=0;labelBackgroundColor=none;endSize=2;" edge="1" parent="1" source="PLPeGTsNUyZ7Hu_J96Ss-15" target="PLPeGTsNUyZ7Hu_J96Ss-17">
          <mxGeometry relative="1" as="geometry" />
        </mxCell>
        <mxCell id="PLPeGTsNUyZ7Hu_J96Ss-17" value="" style="ellipse;html=1;fontSize=11;align=center;fillColor=none;points=[];aspect=fixed;resizable=0;verticalAlign=bottom;labelPosition=center;verticalLabelPosition=top;flipH=1;" vertex="1" parent="1">
          <mxGeometry x="546.5" y="791" width="8" height="8" as="geometry" />
        </mxCell>
        <mxCell id="PLPeGTsNUyZ7Hu_J96Ss-18" style="edgeStyle=orthogonalEdgeStyle;rounded=0;orthogonalLoop=1;jettySize=auto;html=1;entryX=0.5;entryY=1;entryDx=0;entryDy=0;" edge="1" parent="1" source="PLPeGTsNUyZ7Hu_J96Ss-19" target="PLPeGTsNUyZ7Hu_J96Ss-20">
          <mxGeometry relative="1" as="geometry" />
        </mxCell>
        <mxCell id="PLPeGTsNUyZ7Hu_J96Ss-19" value="" style="html=1;rounded=0;direction=east;flipV=0;" vertex="1" parent="1">
          <mxGeometry x="430" y="781" width="30" height="30" as="geometry" />
        </mxCell>
        <mxCell id="PLPeGTsNUyZ7Hu_J96Ss-20" value="" style="html=1;rounded=0;" vertex="1" parent="1">
          <mxGeometry x="235" y="649.5" width="30" height="30" as="geometry" />
        </mxCell>
        <mxCell id="PLPeGTsNUyZ7Hu_J96Ss-21" value="" style="html=1;rounded=0;" vertex="1" parent="1">
          <mxGeometry x="190" y="550" width="30" height="30" as="geometry" />
        </mxCell>
        <mxCell id="PLPeGTsNUyZ7Hu_J96Ss-22" value="" style="html=1;rounded=0;" vertex="1" parent="1">
          <mxGeometry x="290" y="550" width="30" height="30" as="geometry" />
        </mxCell>
        <mxCell id="PLPeGTsNUyZ7Hu_J96Ss-23" value="" style="html=1;rounded=0;direction=east;flipV=0;" vertex="1" parent="1">
          <mxGeometry x="150" y="602" width="30" height="30" as="geometry" />
        </mxCell>
        <mxCell id="PLPeGTsNUyZ7Hu_J96Ss-24" value="TCP" style="text;html=1;align=center;verticalAlign=middle;resizable=0;points=[];autosize=1;strokeColor=none;fillColor=none;" vertex="1" parent="1">
          <mxGeometry x="525.5" y="794" width="50" height="30" as="geometry" />
        </mxCell>
        <mxCell id="PLPeGTsNUyZ7Hu_J96Ss-25" value="" style="shape=flexArrow;endArrow=classic;html=1;rounded=0;fillColor=#FF3333;" edge="1" parent="1">
          <mxGeometry width="50" height="50" relative="1" as="geometry">
            <mxPoint x="360" y="570" as="sourcePoint" />
            <mxPoint x="640" y="530" as="targetPoint" />
          </mxGeometry>
        </mxCell>
        <mxCell id="PLPeGTsNUyZ7Hu_J96Ss-28" value="" style="html=1;dropTarget=0;fillColor=#fff2cc;strokeColor=#d6b656;" vertex="1" parent="1">
          <mxGeometry x="650" y="340" width="690" height="400" as="geometry" />
        </mxCell>
        <mxCell id="PLPeGTsNUyZ7Hu_J96Ss-29" value="" style="shape=module;jettyWidth=8;jettyHeight=4;" vertex="1" parent="PLPeGTsNUyZ7Hu_J96Ss-28">
          <mxGeometry x="1" width="20" height="20" relative="1" as="geometry">
            <mxPoint x="-27" y="7" as="offset" />
          </mxGeometry>
        </mxCell>
        <mxCell id="PLPeGTsNUyZ7Hu_J96Ss-51" style="edgeStyle=orthogonalEdgeStyle;rounded=0;orthogonalLoop=1;jettySize=auto;html=1;fillColor=#FF3333;" edge="1" parent="1" source="PLPeGTsNUyZ7Hu_J96Ss-30" target="PLPeGTsNUyZ7Hu_J96Ss-49">
          <mxGeometry relative="1" as="geometry" />
        </mxCell>
        <mxCell id="PLPeGTsNUyZ7Hu_J96Ss-30" value="«component»&lt;br&gt;&lt;b&gt;:AdministracionUbicacion&lt;br&gt;&lt;/b&gt;" style="html=1;dropTarget=0;" vertex="1" parent="1">
          <mxGeometry x="900" y="451" width="240" height="99" as="geometry" />
        </mxCell>
        <mxCell id="PLPeGTsNUyZ7Hu_J96Ss-31" value="" style="shape=module;jettyWidth=8;jettyHeight=4;" vertex="1" parent="PLPeGTsNUyZ7Hu_J96Ss-30">
          <mxGeometry x="1" width="20" height="20" relative="1" as="geometry">
            <mxPoint x="-27" y="7" as="offset" />
          </mxGeometry>
        </mxCell>
        <mxCell id="PLPeGTsNUyZ7Hu_J96Ss-32" value="" style="html=1;rounded=0;" vertex="1" parent="1">
          <mxGeometry x="1130" y="490" width="30" height="30" as="geometry" />
        </mxCell>
        <mxCell id="PLPeGTsNUyZ7Hu_J96Ss-33" value="" style="html=1;rounded=0;" vertex="1" parent="1">
          <mxGeometry x="1000" y="541" width="30" height="30" as="geometry" />
        </mxCell>
        <mxCell id="PLPeGTsNUyZ7Hu_J96Ss-34" value="" style="rounded=0;orthogonalLoop=1;jettySize=auto;html=1;endArrow=none;endFill=0;sketch=0;targetPerimeterSpacing=0;fillColor=#FF3333;startArrow=none;" edge="1" parent="1" source="PLPeGTsNUyZ7Hu_J96Ss-36">
          <mxGeometry relative="1" as="geometry">
            <mxPoint x="1430" y="505" as="sourcePoint" />
            <mxPoint x="1400" y="505" as="targetPoint" />
          </mxGeometry>
        </mxCell>
        <mxCell id="PLPeGTsNUyZ7Hu_J96Ss-37" value="&amp;lt;&amp;lt;component&amp;gt;&amp;gt;" style="text;html=1;align=center;verticalAlign=middle;resizable=0;points=[];autosize=1;strokeColor=none;fillColor=none;" vertex="1" parent="1">
          <mxGeometry x="965" y="340" width="110" height="30" as="geometry" />
        </mxCell>
        <mxCell id="PLPeGTsNUyZ7Hu_J96Ss-38" value="GestorUbicacion" style="text;html=1;align=center;verticalAlign=middle;resizable=0;points=[];autosize=1;strokeColor=none;fillColor=none;" vertex="1" parent="1">
          <mxGeometry x="965" y="370" width="110" height="30" as="geometry" />
        </mxCell>
        <mxCell id="PLPeGTsNUyZ7Hu_J96Ss-41" value="" style="ellipse;whiteSpace=wrap;html=1;align=center;aspect=fixed;resizable=0;points=[];outlineConnect=0;sketch=0;" vertex="1" parent="1">
          <mxGeometry x="1010" y="751" width="10" height="10" as="geometry" />
        </mxCell>
        <mxCell id="PLPeGTsNUyZ7Hu_J96Ss-43" value="" style="rounded=0;orthogonalLoop=1;jettySize=auto;html=1;endArrow=none;endFill=0;sketch=0;sourcePerimeterSpacing=0;targetPerimeterSpacing=0;fillColor=#FF3333;exitX=0.5;exitY=1;exitDx=0;exitDy=0;" edge="1" parent="1" source="PLPeGTsNUyZ7Hu_J96Ss-33" target="PLPeGTsNUyZ7Hu_J96Ss-41">
          <mxGeometry relative="1" as="geometry">
            <mxPoint x="1005" y="800" as="sourcePoint" />
            <mxPoint x="890" y="790" as="targetPoint" />
          </mxGeometry>
        </mxCell>
        <mxCell id="PLPeGTsNUyZ7Hu_J96Ss-46" value="Consulta Reglas" style="text;html=1;align=center;verticalAlign=middle;resizable=0;points=[];autosize=1;strokeColor=none;fillColor=none;" vertex="1" parent="1">
          <mxGeometry x="1340" y="470" width="110" height="30" as="geometry" />
        </mxCell>
        <mxCell id="PLPeGTsNUyZ7Hu_J96Ss-36" value="" style="ellipse;whiteSpace=wrap;html=1;align=center;aspect=fixed;resizable=0;points=[];outlineConnect=0;sketch=0;" vertex="1" parent="1">
          <mxGeometry x="1390" y="500" width="10" height="10" as="geometry" />
        </mxCell>
        <mxCell id="PLPeGTsNUyZ7Hu_J96Ss-47" value="" style="rounded=0;orthogonalLoop=1;jettySize=auto;html=1;endArrow=none;endFill=0;sketch=0;sourcePerimeterSpacing=0;fillColor=#FF3333;" edge="1" parent="1" source="PLPeGTsNUyZ7Hu_J96Ss-32" target="PLPeGTsNUyZ7Hu_J96Ss-36">
          <mxGeometry relative="1" as="geometry">
            <mxPoint x="1160" y="505" as="sourcePoint" />
            <mxPoint x="1400" y="505" as="targetPoint" />
          </mxGeometry>
        </mxCell>
        <mxCell id="PLPeGTsNUyZ7Hu_J96Ss-48" value="Gestor Ubicacion" style="text;html=1;align=center;verticalAlign=middle;resizable=0;points=[];autosize=1;strokeColor=none;fillColor=none;" vertex="1" parent="1">
          <mxGeometry x="1020" y="740" width="120" height="30" as="geometry" />
        </mxCell>
        <mxCell id="PLPeGTsNUyZ7Hu_J96Ss-49" value="«component»&lt;br&gt;&lt;b&gt;:reglaUbicacion&lt;br&gt;&lt;/b&gt;" style="html=1;dropTarget=0;" vertex="1" parent="1">
          <mxGeometry x="680" y="571" width="190" height="99" as="geometry" />
        </mxCell>
        <mxCell id="PLPeGTsNUyZ7Hu_J96Ss-50" value="" style="shape=module;jettyWidth=8;jettyHeight=4;" vertex="1" parent="PLPeGTsNUyZ7Hu_J96Ss-49">
          <mxGeometry x="1" width="20" height="20" relative="1" as="geometry">
            <mxPoint x="-27" y="7" as="offset" />
          </mxGeometry>
        </mxCell>
        <mxCell id="PLPeGTsNUyZ7Hu_J96Ss-52" value="Gestor Reglas" style="text;html=1;align=center;verticalAlign=middle;resizable=0;points=[];autosize=1;strokeColor=none;fillColor=none;" vertex="1" parent="1">
          <mxGeometry x="700" y="470" width="100" height="30" as="geometry" />
        </mxCell>
      </root>
    </mxGraphModel>
  </diagram>
</mxfile>
